<mxfile host="app.diagrams.net" modified="2024-01-14T09:40:19.246Z" agent="Mozilla/5.0 (Windows NT 10.0; Win64; x64) AppleWebKit/537.36 (KHTML, like Gecko) Chrome/120.0.0.0 Safari/537.36" etag="cZ-41whBdlvwW_xKWgw5" version="22.1.18" type="github">
  <diagram name="第 1 页" id="poTM7zbL6Qr_ExGNxjrP">
    <mxGraphModel dx="1434" dy="746" grid="1" gridSize="10" guides="1" tooltips="1" connect="1" arrows="1" fold="1" page="1" pageScale="1" pageWidth="827" pageHeight="1169" math="0" shadow="0">
      <root>
        <mxCell id="0" />
        <mxCell id="1" parent="0" />
        <mxCell id="_gfI0N1SYuBNKU1lcbQN-12" value="" style="edgeStyle=entityRelationEdgeStyle;rounded=0;orthogonalLoop=1;jettySize=auto;html=1;startArrow=none;endArrow=none;segment=10;curved=1;sourcePerimeterSpacing=0;targetPerimeterSpacing=0;" edge="1" parent="1" source="_gfI0N1SYuBNKU1lcbQN-9" target="_gfI0N1SYuBNKU1lcbQN-11">
          <mxGeometry relative="1" as="geometry" />
        </mxCell>
        <mxCell id="_gfI0N1SYuBNKU1lcbQN-9" value="&lt;b&gt;ads_fin_atl_btl_dtl_rpt_df&lt;/b&gt;&lt;br&gt;(销售财务报表 GL(ATL&amp;amp;BTL) 分摊明细数据)&lt;br&gt;&lt;br&gt;&lt;b&gt;Job:&lt;br&gt;&lt;/b&gt;job_trsf_ads_fin_atl_btl_dtl_rpt_df_1168&lt;br&gt;&lt;br&gt;&lt;b&gt;处理过程：&lt;/b&gt;" style="whiteSpace=wrap;html=1;rounded=0;arcSize=50;align=left;verticalAlign=middle;strokeWidth=1;autosize=1;spacing=15;treeFolding=1;treeMoving=1;newEdgeStyle={&quot;edgeStyle&quot;:&quot;entityRelationEdgeStyle&quot;,&quot;startArrow&quot;:&quot;none&quot;,&quot;endArrow&quot;:&quot;none&quot;,&quot;segment&quot;:10,&quot;curved&quot;:1,&quot;sourcePerimeterSpacing&quot;:0,&quot;targetPerimeterSpacing&quot;:0};shadow=1;" vertex="1" parent="1">
          <mxGeometry y="278" width="300" height="140" as="geometry" />
        </mxCell>
        <mxCell id="_gfI0N1SYuBNKU1lcbQN-14" value="" style="edgeStyle=entityRelationEdgeStyle;rounded=0;orthogonalLoop=1;jettySize=auto;html=1;startArrow=none;endArrow=none;segment=10;curved=1;sourcePerimeterSpacing=0;targetPerimeterSpacing=0;" edge="1" parent="1" source="_gfI0N1SYuBNKU1lcbQN-11" target="_gfI0N1SYuBNKU1lcbQN-13">
          <mxGeometry relative="1" as="geometry" />
        </mxCell>
        <mxCell id="_gfI0N1SYuBNKU1lcbQN-11" value="&lt;b&gt;dws_fin_atl_btl_info_di&lt;/b&gt;&lt;br&gt;(销售财务报表 GL(ATL&amp;amp;BTL) 待分摊明细数据)&lt;br&gt;&lt;br&gt;&lt;b&gt;Job:&lt;br&gt;&lt;/b&gt;job_trsf_dws_fin_atl_btl_info_di_4463&lt;br&gt;&lt;br&gt;&lt;b&gt;处理过程：&lt;/b&gt;" style="whiteSpace=wrap;html=1;rounded=0;arcSize=50;align=left;verticalAlign=middle;strokeWidth=1;autosize=1;spacing=15;treeFolding=1;treeMoving=1;newEdgeStyle={&quot;edgeStyle&quot;:&quot;entityRelationEdgeStyle&quot;,&quot;startArrow&quot;:&quot;none&quot;,&quot;endArrow&quot;:&quot;none&quot;,&quot;segment&quot;:10,&quot;curved&quot;:1,&quot;sourcePerimeterSpacing&quot;:0,&quot;targetPerimeterSpacing&quot;:0};shadow=1;" vertex="1" parent="1">
          <mxGeometry x="370" y="278" width="310" height="140" as="geometry" />
        </mxCell>
        <mxCell id="_gfI0N1SYuBNKU1lcbQN-13" value="&lt;b&gt;dws_fin_a_p_acvy_chg_dtl_df&lt;/b&gt;&lt;br&gt;(Sales A&amp;amp;P 方案书变化明细表)&lt;br&gt;&lt;br&gt;&lt;b&gt;Job:&lt;br&gt;&lt;/b&gt;job_trsf_dws_fin_a_p_acvy_chg_dtl_df_3246&lt;br&gt;&lt;br&gt;&lt;b&gt;处理过程：&lt;/b&gt;&lt;br&gt;(1) 从 TPM 预提明细表&amp;nbsp;dwd_fin_tpm_prvn_dtl_df统计预提费用，条件为&amp;nbsp;expn_type&amp;nbsp;&lt;span style=&quot;font-family: Consolas, &amp;quot;Courier New&amp;quot;, monospace; font-size: 14px; color: rgb(119, 136, 153);&quot;&gt;=&lt;/span&gt;&lt;span style=&quot;background-color: rgb(255, 255, 254); font-family: Consolas, &amp;quot;Courier New&amp;quot;, monospace; font-size: 14px;&quot;&gt;&amp;nbsp;&lt;/span&gt;&lt;font color=&quot;#707070&quot;&gt;&#39;A&amp;amp;P&#39;&lt;/font&gt;&lt;br&gt;(2) 统计 A&amp;amp;P 费用&lt;br&gt;(3) 计算&lt;span style=&quot;background-color: rgb(255, 255, 254); font-family: Consolas, &amp;quot;Courier New&amp;quot;, monospace; font-size: 14px;&quot;&gt;kpi_mtd_act，使用 cross join 关联所有月维度，再使用 lag 窗口函数计算上月预提额，&lt;/span&gt;kpi_mtd_act = 当月预提额 - 上月预提额" style="whiteSpace=wrap;html=1;rounded=0;arcSize=50;align=left;verticalAlign=middle;strokeWidth=1;autosize=1;spacing=15;treeFolding=1;treeMoving=1;newEdgeStyle={&quot;edgeStyle&quot;:&quot;entityRelationEdgeStyle&quot;,&quot;startArrow&quot;:&quot;none&quot;,&quot;endArrow&quot;:&quot;none&quot;,&quot;segment&quot;:10,&quot;curved&quot;:1,&quot;sourcePerimeterSpacing&quot;:0,&quot;targetPerimeterSpacing&quot;:0};shadow=1;" vertex="1" parent="1">
          <mxGeometry x="740" y="253" width="470" height="190" as="geometry" />
        </mxCell>
      </root>
    </mxGraphModel>
  </diagram>
</mxfile>
